<?xml version="1.0" encoding="UTF-8" standalone="no"?>
<!-- Generator: Adobe Illustrator 18.0.0, SVG Export Plug-In . SVG Version: 6.00 Build 0)  -->

<svg
   xmlns:dc="http://purl.org/dc/elements/1.1/"
   xmlns:cc="http://creativecommons.org/ns#"
   xmlns:rdf="http://www.w3.org/1999/02/22-rdf-syntax-ns#"
   xmlns:svg="http://www.w3.org/2000/svg"
   xmlns="http://www.w3.org/2000/svg"
   xmlns:sodipodi="http://sodipodi.sourceforge.net/DTD/sodipodi-0.dtd"
   xmlns:inkscape="http://www.inkscape.org/namespaces/inkscape"
   version="1.1"
   id="Capa_1"
   x="0px"
   y="0px"
   viewBox="0 0 491.035 491.035"
   style="enable-background:new 0 0 491.035 491.035;"
   xml:space="preserve"
   sodipodi:docname="strong.svg"
   inkscape:version="0.92.4 (5da689c313, 2019-01-14)"><metadata
   id="metadata3787"><rdf:RDF><cc:Work
       rdf:about=""><dc:format>image/svg+xml</dc:format><dc:type
         rdf:resource="http://purl.org/dc/dcmitype/StillImage" /><dc:title></dc:title></cc:Work></rdf:RDF></metadata><defs
   id="defs3785" /><sodipodi:namedview
   pagecolor="#ffffff"
   bordercolor="#666666"
   borderopacity="1"
   objecttolerance="10"
   gridtolerance="10"
   guidetolerance="10"
   inkscape:pageopacity="0"
   inkscape:pageshadow="2"
   inkscape:window-width="2560"
   inkscape:window-height="1377"
   id="namedview3783"
   showgrid="false"
   inkscape:zoom="2.4601097"
   inkscape:cx="245.5175"
   inkscape:cy="245.5175"
   inkscape:window-x="-8"
   inkscape:window-y="-8"
   inkscape:window-maximized="1"
   inkscape:current-layer="Capa_1" />
<path
   id="coctail-glass"
   style="fill:#000100"
   d="m 459.017,29.493 c 4.949,-4.948 6.416,-12.371 3.743,-18.832 C 460.083,4.208 453.785,0 446.805,0 H 44.235 c -6.99,0 -13.288,4.208 -15.957,10.661 -2.682,6.461 -1.205,13.884 3.743,18.832 L 228.244,225.699 V 421.272 L 114.536,476.41 c -3.215,1.576 -4.94,5.161 -4.131,8.647 0.799,3.504 3.905,5.978 7.49,5.978 h 255.25 c 3.585,0 6.686,-2.474 7.481,-5.978 0.817,-3.486 -0.907,-7.071 -4.131,-8.647 l -113.7,-55.139 V 225.698 Z m -53.919,5.052 -14.02358,12.39764 c -39.639,-6.678 -108.46477,22.989204 -144.74877,32.087204 -40.365,10.122 -108.58718,-29.508345 -149.079179,-33.991345 L 85.932,34.545 Z"
   inkscape:connector-curvature="0"
   sodipodi:nodetypes="ccssccccccssccccccccccc" />
<g
   id="g3752">
</g>
<g
   id="g3754">
</g>
<g
   id="g3756">
</g>
<g
   id="g3758">
</g>
<g
   id="g3760">
</g>
<g
   id="g3762">
</g>
<g
   id="g3764">
</g>
<g
   id="g3766">
</g>
<g
   id="g3768">
</g>
<g
   id="g3770">
</g>
<g
   id="g3772">
</g>
<g
   id="g3774">
</g>
<g
   id="g3776">
</g>
<g
   id="g3778">
</g>
<g
   id="g3780">
</g>
</svg>